<svg xmlns="http://www.w3.org/2000/svg" version="1.1" xmlns:xlink="http://www.w3.org/1999/xlink" viewBox="0 0 200 200"><rect width="200" height="200" fill="url('#gradient')"></rect><defs><linearGradient id="gradient" gradientTransform="rotate(20 0.5 0.5)"><stop offset="0%" stop-color="#000000"></stop><stop offset="100%" stop-color="#820084"></stop></linearGradient></defs><g><g fill="#ffffff" transform="matrix(1.9752058951018638,0,0,1.9752058951018638,10.30574269093215,110.2224710131291)" stroke="#ffffff" stroke-width="0.2"><path d="M12.24-14.22L12.24-11.57L7.97-11.57L7.97 0L4.54 0L4.54-11.57L0.35-11.57L0.35-14.22L12.24-14.22ZM25.45-7.47L25.45-6.82Q25.45-4.74 24.68-3.13Q23.91-1.53 22.49-0.67Q21.06 0.20 19.25 0.20Q17.43 0.20 16.03-0.64Q14.62-1.47 13.83-3.03Q13.05-4.58 13.01-6.59L13.01-6.59L13.01-7.39Q13.01-9.48 13.77-11.08Q14.54-12.68 15.97-13.54Q17.40-14.41 19.23-14.41L19.23-14.41Q21.04-14.41 22.45-13.55Q23.87-12.70 24.65-11.11Q25.44-9.52 25.45-7.47L25.45-7.47ZM21.96-6.76L21.96-7.41Q21.96-9.53 21.25-10.63Q20.55-11.73 19.23-11.73L19.23-11.73Q16.65-11.73 16.50-7.86L16.50-7.86L16.49-6.82Q16.49-4.73 17.19-3.60Q17.88-2.48 19.25-2.48L19.25-2.48Q20.55-2.48 21.25-3.58Q21.95-4.69 21.96-6.76L21.96-6.76ZM31.89 0L27.22 0L27.22-14.22L31.80-14.22Q33.68-14.22 35.19-13.36Q36.69-12.51 37.53-10.95Q38.38-9.39 38.39-7.46L38.39-7.46L38.39-6.81Q38.39-4.85 37.56-3.31Q36.74-1.76 35.24-0.88Q33.74-0.01 31.89 0L31.89 0ZM31.80-11.57L30.64-11.57L30.64-2.64L31.84-2.64Q33.31-2.64 34.10-3.69Q34.89-4.74 34.89-6.81L34.89-6.81L34.89-7.42Q34.89-9.48 34.10-10.53Q33.31-11.57 31.80-11.57L31.80-11.57ZM52.19-7.47L52.19-6.82Q52.19-4.74 51.42-3.13Q50.64-1.53 49.22-0.67Q47.80 0.20 45.99 0.20Q44.17 0.20 42.76-0.64Q41.36-1.47 40.57-3.03Q39.79-4.58 39.75-6.59L39.75-6.59L39.75-7.39Q39.75-9.48 40.51-11.08Q41.28-12.68 42.71-13.54Q44.14-14.41 45.97-14.41L45.97-14.41Q47.77-14.41 49.19-13.55Q50.61-12.70 51.39-11.11Q52.18-9.52 52.19-7.47L52.19-7.47ZM48.70-6.76L48.70-7.41Q48.70-9.53 47.99-10.63Q47.29-11.73 45.97-11.73L45.97-11.73Q43.39-11.73 43.24-7.86L43.24-7.86L43.23-6.82Q43.23-4.73 43.93-3.60Q44.62-2.48 45.99-2.48L45.99-2.48Q47.29-2.48 47.99-3.58Q48.69-4.69 48.70-6.76L48.70-6.76ZM68.03 0L64.74 0Q64.56-0.32 64.42-0.95L64.42-0.95Q63.52 0.20 61.88 0.20L61.88 0.20Q60.39 0.20 59.35-0.71Q58.30-1.61 58.30-2.98L58.30-2.98Q58.30-4.70 59.57-5.58Q60.84-6.46 63.26-6.46L63.26-6.46L64.28-6.46L64.28-7.01Q64.28-8.47 63.02-8.47L63.02-8.47Q61.85-8.47 61.85-7.31L61.85-7.31L58.55-7.31Q58.55-8.85 59.86-9.80Q61.16-10.76 63.18-10.76Q65.21-10.76 66.38-9.78Q67.55-8.79 67.58-7.07L67.58-7.07L67.58-2.39Q67.60-0.94 68.03-0.17L68.03-0.17L68.03 0ZM62.68-2.15L62.68-2.15Q63.29-2.15 63.70-2.41Q64.10-2.68 64.28-3.01L64.28-3.01L64.28-4.70L63.32-4.70Q61.60-4.70 61.60-3.15L61.60-3.15Q61.60-2.71 61.90-2.43Q62.21-2.15 62.68-2.15ZM79.21-5.36L79.21-5.21Q79.21-2.74 78.10-1.27Q76.99 0.20 75.11 0.20L75.11 0.20Q73.65 0.20 72.71-0.87L72.71-0.87L72.71 4.06L69.42 4.06L69.42-10.57L72.50-10.57L72.60-9.59Q73.54-10.76 75.09-10.76L75.09-10.76Q77.04-10.76 78.13-9.32Q79.21-7.88 79.21-5.36L79.21-5.36ZM75.92-5.06L75.92-5.41Q75.92-8.22 74.28-8.22L74.28-8.22Q73.11-8.22 72.71-7.38L72.71-7.38L72.71-3.22Q73.14-2.34 74.30-2.34L74.30-2.34Q75.87-2.34 75.92-5.06L75.92-5.06ZM90.47-5.36L90.47-5.21Q90.47-2.74 89.36-1.27Q88.25 0.20 86.37 0.20L86.37 0.20Q84.91 0.20 83.97-0.87L83.97-0.87L83.97 4.06L80.68 4.06L80.68-10.57L83.76-10.57L83.86-9.59Q84.80-10.76 86.35-10.76L86.35-10.76Q88.30-10.76 89.38-9.32Q90.47-7.88 90.47-5.36L90.47-5.36ZM87.18-5.06L87.18-5.41Q87.18-8.22 85.54-8.22L85.54-8.22Q84.37-8.22 83.97-7.38L83.97-7.38L83.97-3.22Q84.40-2.34 85.56-2.34L85.56-2.34Q87.13-2.34 87.18-5.06L87.18-5.06Z"></path></g></g></svg>